<svg width="360" height="566" viewBox="0 0 360 566" fill="none" xmlns="http://www.w3.org/2000/svg">
<path fill-rule="evenodd" clip-rule="evenodd" d="M344.509 425.5C351.412 425.5 357.009 419.904 357.009 413L357.009 367C357.009 360.097 351.425 354.5 344.521 354.5L301.368 354.5C294.254 354.5 290.066 352.408 287.649 349.728C285.221 347.036 284.509 343.671 284.509 341L284.509 296.5C284.509 289.596 278.912 284 272.009 284L226.009 284C219.105 284 213.509 289.596 213.509 296.5L213.509 342.5C213.509 349.404 219.105 355 226.009 355L272.509 355L272.509 355.5C277.253 355.5 280.047 357.303 281.684 359.892C283.348 362.522 283.862 366.032 283.862 369.5L283.862 413C283.862 419.904 289.458 425.5 296.362 425.5L344.509 425.5ZM274.509 354.611C278.404 355.061 280.945 356.852 282.53 359.358C284.345 362.228 284.862 365.968 284.862 369.5L284.862 413C284.862 419.351 290.01 424.5 296.362 424.5L344.509 424.5C350.86 424.5 356.009 419.351 356.009 413L356.009 367C356.009 360.648 350.872 355.5 344.521 355.5L301.368 355.5C294.052 355.5 289.561 353.342 286.906 350.397C284.261 347.464 283.509 343.829 283.509 341L283.509 296.5C283.509 290.149 278.36 285 272.009 285L226.009 285C219.658 285 214.509 290.149 214.509 296.5L214.509 342.5C214.509 348.851 219.658 354 226.009 354L274.509 354L274.509 354.611Z" fill="#EEEBF4" fill-opacity="0.32"/>
<path fill-rule="evenodd" clip-rule="evenodd" d="M346.509 565.5C353.412 565.5 359.009 559.904 359.009 553L359.009 507C359.009 500.097 353.425 494.5 346.521 494.5L303.368 494.5C296.254 494.5 292.066 492.408 289.649 489.728C287.221 487.036 286.509 483.671 286.509 481L286.509 436.5C286.509 429.596 280.912 424 274.009 424L228.009 424C221.105 424 215.509 429.596 215.509 436.5L215.509 482.5C215.509 489.404 221.105 495 228.009 495L274.509 495L274.509 495.5C279.253 495.5 282.047 497.303 283.684 499.892C285.348 502.522 285.862 506.032 285.862 509.5L285.862 553C285.862 559.904 291.458 565.5 298.362 565.5L346.509 565.5ZM276.509 494.611C280.404 495.061 282.945 496.852 284.53 499.358C286.345 502.228 286.862 505.968 286.862 509.5L286.862 553C286.862 559.351 292.01 564.5 298.362 564.5L346.509 564.5C352.86 564.5 358.009 559.351 358.009 553L358.009 507C358.009 500.648 352.872 495.5 346.521 495.5L303.368 495.5C296.052 495.5 291.561 493.342 288.906 490.397C286.261 487.464 285.509 483.829 285.509 481L285.509 436.5C285.509 430.149 280.36 425 274.009 425L228.009 425C221.658 425 216.509 430.149 216.509 436.5L216.509 482.5C216.509 488.851 221.658 494 228.009 494L276.509 494L276.509 494.611Z" fill="#EEEBF4" fill-opacity="0.32"/>
<path fill-rule="evenodd" clip-rule="evenodd" d="M343.509 214.5C350.412 214.5 356.009 208.904 356.009 202L356.009 156C356.009 149.097 350.425 143.5 343.521 143.5L300.368 143.5C293.254 143.5 289.066 141.408 286.649 138.728C284.221 136.036 283.509 132.671 283.509 130L283.509 85.5C283.509 78.5964 277.912 73 271.009 73L225.009 73C218.105 73 212.509 78.5964 212.509 85.5L212.509 131.5C212.509 138.404 218.105 144 225.009 144L271.509 144L271.509 144.5C276.253 144.5 279.047 146.303 280.684 148.892C282.348 151.522 282.862 155.032 282.862 158.5L282.862 202C282.862 208.904 288.458 214.5 295.362 214.5L343.509 214.5ZM273.509 143.611C277.404 144.061 279.945 145.852 281.53 148.358C283.345 151.228 283.862 154.968 283.862 158.5L283.862 202C283.862 208.351 289.01 213.5 295.362 213.5L343.509 213.5C349.86 213.5 355.009 208.351 355.009 202L355.009 156C355.009 149.648 349.872 144.5 343.521 144.5L300.368 144.5C293.052 144.5 288.561 142.342 285.906 139.397C283.261 136.464 282.509 132.829 282.509 130L282.509 85.5C282.509 79.1487 277.36 74 271.009 74L225.009 74C218.658 74 213.509 79.1487 213.509 85.5L213.509 131.5C213.509 137.851 218.658 143 225.009 143L273.509 143L273.509 143.611Z" fill="#EEEBF4" fill-opacity="0.32"/>
<path fill-rule="evenodd" clip-rule="evenodd" d="M202.509 212.5C209.412 212.5 215.009 206.904 215.009 200L215.009 154C215.009 147.097 209.425 141.5 202.521 141.5L159.368 141.5C152.254 141.5 148.066 139.408 145.649 136.728C143.221 134.036 142.509 130.671 142.509 128L142.509 83.5C142.509 76.5964 136.912 71 130.009 71L84.0088 71C77.1052 71 71.5088 76.5964 71.5088 83.5L71.5088 129.5C71.5088 136.404 77.1052 142 84.0088 142L130.509 142L130.509 142.5C135.253 142.5 138.047 144.303 139.684 146.892C141.348 149.522 141.862 153.032 141.862 156.5L141.862 200C141.862 206.904 147.458 212.5 154.362 212.5L202.509 212.5ZM132.509 141.611C136.404 142.061 138.945 143.852 140.53 146.358C142.345 149.228 142.862 152.968 142.862 156.5L142.862 200C142.862 206.351 148.01 211.5 154.362 211.5L202.509 211.5C208.86 211.5 214.009 206.351 214.009 200L214.009 154C214.009 147.648 208.872 142.5 202.521 142.5L159.368 142.5C152.052 142.5 147.561 140.342 144.906 137.397C142.261 134.464 141.509 130.829 141.509 128L141.509 83.5C141.509 77.1487 136.36 72 130.009 72L84.0088 72C77.6575 72 72.5088 77.1487 72.5088 83.5L72.5088 129.5C72.5088 135.851 77.6575 141 84.0088 141L132.509 141L132.509 141.611Z" fill="#EEEBF4" fill-opacity="0.32"/>
<path fill-rule="evenodd" clip-rule="evenodd" d="M200.509 141.5C207.412 141.5 213.009 135.904 213.009 129L213.009 83C213.009 76.0971 207.425 70.5 200.521 70.5L157.368 70.5C150.254 70.5 146.066 68.4082 143.649 65.7277C141.221 63.0357 140.509 59.6713 140.509 57L140.509 12.5C140.509 5.59644 134.912 6.82741e-06 128.009 7.43094e-06L82.0088 1.14524e-05C75.1052 1.20559e-05 69.5088 5.59645 69.5088 12.5L69.5088 58.5C69.5088 65.4036 75.1052 71 82.0088 71L128.509 71L128.509 71.5C133.253 71.5 136.047 73.3034 137.684 75.8923C139.348 78.5221 139.862 82.0318 139.862 85.5L139.862 129C139.862 135.904 145.458 141.5 152.362 141.5L200.509 141.5ZM130.509 70.6107C134.404 71.0612 136.945 72.8522 138.53 75.3577C140.345 78.2279 140.862 81.9682 140.862 85.5L140.862 129C140.862 135.351 146.01 140.5 152.362 140.5L200.509 140.5C206.86 140.5 212.009 135.351 212.009 129L212.009 83C212.009 76.6481 206.872 71.5 200.521 71.5L157.368 71.5C150.052 71.5 145.561 69.3418 142.906 66.3973C140.261 63.4643 139.509 59.8287 139.509 57L139.509 12.5C139.509 6.14873 134.36 1.00001 128.009 1.00001L82.0088 1.00001C75.6575 1.00001 70.5088 6.14874 70.5088 12.5L70.5088 58.5C70.5088 64.8513 75.6575 70 82.0088 70L130.509 70L130.509 70.6107Z" fill="#EEEBF4" fill-opacity="0.32"/>
<path fill-rule="evenodd" clip-rule="evenodd" d="M274.518 565.5C281.421 565.5 287.018 559.904 287.018 553L287.018 507C287.018 500.097 281.431 494.5 274.527 494.5L232.34 494.5C225.356 494.5 221.244 492.41 218.871 489.731C216.486 487.039 215.785 483.673 215.785 481L215.785 436.5C215.785 429.596 210.189 424 203.285 424L158.509 424C151.605 424 146.009 429.596 146.009 436.5L146.009 482.5C146.009 489.404 151.605 495 158.509 495L203.986 495L203.986 495.5C208.641 495.5 211.383 497.3 212.992 499.889C214.626 502.52 215.132 506.031 215.132 509.5L215.132 553C215.132 559.904 220.728 565.5 227.632 565.5L274.518 565.5ZM205.951 494.611C209.784 495.061 212.284 496.855 213.841 499.361C215.624 502.23 216.132 505.969 216.132 509.5L216.132 553C216.132 559.351 221.28 564.5 227.632 564.5L274.518 564.5C280.869 564.5 286.018 559.351 286.018 553L286.018 507C286.018 500.648 280.878 495.5 274.527 495.5L232.34 495.5C225.148 495.5 220.732 493.34 218.122 490.394C215.524 487.461 214.785 483.827 214.785 481L214.785 436.5C214.785 430.149 209.636 425 203.285 425L158.509 425C152.158 425 147.009 430.149 147.009 436.5L147.009 482.5C147.009 488.851 152.158 494 158.509 494L205.951 494L205.951 494.611Z" fill="#EEEBF4" fill-opacity="0.32"/>
<path fill-rule="evenodd" clip-rule="evenodd" d="M204.509 565.5C211.412 565.5 217.009 559.904 217.009 553L217.009 507C217.009 500.097 211.422 494.5 204.518 494.5L162.332 494.5C155.347 494.5 151.235 492.41 148.862 489.731C146.477 487.039 145.776 483.673 145.776 481L145.776 436.5C145.776 429.596 140.18 424 133.276 424L88.5 424C81.5965 424 76 429.596 76 436.5L76 482.5C76 489.404 81.5965 495 88.5 495L133.977 495L133.977 495.5C138.632 495.5 141.374 497.3 142.983 499.889C144.618 502.52 145.123 506.031 145.123 509.5L145.123 553C145.123 559.904 150.719 565.5 157.623 565.5L204.509 565.5ZM135.942 494.611C139.775 495.061 142.275 496.855 143.832 499.361C145.615 502.23 146.123 505.969 146.123 509.5L146.123 553C146.123 559.351 151.272 564.5 157.623 564.5L204.509 564.5C210.86 564.5 216.009 559.351 216.009 553L216.009 507C216.009 500.648 210.869 495.5 204.518 495.5L162.332 495.5C155.139 495.5 150.723 493.34 148.113 490.394C145.515 487.461 144.776 483.827 144.776 481L144.776 436.5C144.776 430.149 139.628 425 133.276 425L88.5 425C82.1487 425 77 430.149 77 436.5L77 482.5C77 488.851 82.1487 494 88.5 494L135.942 494L135.942 494.611Z" fill="#EEEBF4" fill-opacity="0.32"/>
<path fill-rule="evenodd" clip-rule="evenodd" d="M134.5 565.5C141.404 565.5 147 559.904 147 553L147 507C147 500.097 141.414 494.5 134.51 494.5L92.3229 494.5C85.338 494.5 81.2265 492.41 78.853 489.731C76.4681 487.039 75.7675 483.673 75.7675 481L75.7675 436.5C75.7675 429.596 70.171 424 63.2675 424L18.4912 424C11.5877 424 5.99123 429.596 5.99123 436.5L5.99123 482.5C5.99123 489.404 11.5877 495 18.4912 495L63.9685 495L63.9685 495.5C68.6234 495.5 71.3655 497.3 72.9742 499.889C74.6089 502.52 75.114 506.031 75.114 509.5L75.1141 553C75.1141 559.904 80.7105 565.5 87.614 565.5L134.5 565.5ZM65.9336 494.611C69.7666 495.061 72.2663 496.855 73.8235 499.361C75.6065 502.23 76.114 505.969 76.114 509.5L76.1141 553C76.1141 559.351 81.2628 564.5 87.614 564.5L134.5 564.5C140.851 564.5 146 559.351 146 553L146 507C146 500.648 140.86 495.5 134.51 495.5L92.3229 495.5C85.1306 495.5 80.7144 493.34 78.1045 490.394C75.5059 487.461 74.7675 483.827 74.7675 481L74.7675 436.5C74.7675 430.149 69.6187 425 63.2675 425L18.4912 425C12.14 425 6.99123 430.149 6.99123 436.5L6.99123 482.5C6.99123 488.851 12.1399 494 18.4912 494L65.9336 494L65.9336 494.611Z" fill="#EEEBF4" fill-opacity="0.32"/>
<path fill-rule="evenodd" clip-rule="evenodd" d="M130.509 423.5C137.412 423.5 143.009 417.904 143.009 411L143.009 365C143.009 358.097 137.422 352.5 130.518 352.5L88.3317 352.5C81.3468 352.5 77.2352 350.41 74.8618 347.731C72.4769 345.039 71.7762 341.673 71.7762 339L71.7763 294.5C71.7763 287.596 66.1798 282 59.2763 282L14.5 282C7.59645 282 2.00002 287.596 2.00002 294.5L2.00002 340.5C2.00002 347.404 7.59646 353 14.5 353L59.9773 353L59.9773 353.5C64.6322 353.5 67.3743 355.3 68.983 357.889C70.6177 360.52 71.1228 364.031 71.1228 367.5L71.1228 411C71.1228 417.904 76.7193 423.5 83.6228 423.5L130.509 423.5ZM61.9424 352.611C65.7754 353.061 68.2751 354.855 69.8323 357.361C71.6153 360.23 72.1228 363.969 72.1228 367.5L72.1228 411C72.1228 417.351 77.2716 422.5 83.6228 422.5L130.509 422.5C136.86 422.5 142.009 417.351 142.009 411L142.009 365C142.009 358.648 136.869 353.5 130.518 353.5L88.3317 353.5C81.1394 353.5 76.7232 351.34 74.1133 348.394C71.5147 345.461 70.7762 341.827 70.7762 339L70.7763 294.5C70.7763 288.149 65.6275 283 59.2763 283L14.5 283C8.14875 283 3.00002 288.149 3.00002 294.5L3.00002 340.5C3.00002 346.851 8.14874 352 14.5 352L61.9424 352L61.9424 352.611Z" fill="#EEEBF4" fill-opacity="0.32"/>
<path fill-rule="evenodd" clip-rule="evenodd" d="M128.509 281.5C135.412 281.5 141.009 275.904 141.009 269L141.009 223C141.009 216.097 135.422 210.5 128.518 210.5L86.3317 210.5C79.3468 210.5 75.2352 208.41 72.8618 205.731C70.4769 203.039 69.7762 199.673 69.7762 197L69.7763 152.5C69.7763 145.596 64.1798 140 57.2763 140L12.5 140C5.59645 140 1.86365e-05 145.596 1.924e-05 152.5L2.32615e-05 198.5C2.3865e-05 205.404 5.59646 211 12.5 211L57.9773 211L57.9773 211.5C62.6322 211.5 65.3743 213.3 66.983 215.889C68.6177 218.52 69.1228 222.031 69.1228 225.5L69.1228 269C69.1228 275.904 74.7193 281.5 81.6228 281.5L128.509 281.5ZM59.9424 210.611C63.7754 211.061 66.2751 212.855 67.8323 215.361C69.6153 218.23 70.1228 221.969 70.1228 225.5L70.1228 269C70.1228 275.351 75.2716 280.5 81.6228 280.5L128.509 280.5C134.86 280.5 140.009 275.351 140.009 269L140.009 223C140.009 216.648 134.869 211.5 128.518 211.5L86.3317 211.5C79.1394 211.5 74.7232 209.34 72.1133 206.394C69.5147 203.461 68.7762 199.827 68.7762 197L68.7763 152.5C68.7763 146.149 63.6275 141 57.2763 141L12.5 141C6.14875 141 1.00002 146.149 1.00002 152.5L1.00002 198.5C1.00002 204.851 6.14874 210 12.5 210L59.9424 210L59.9424 210.611Z" fill="#EEEBF4" fill-opacity="0.32"/>
<path fill-rule="evenodd" clip-rule="evenodd" d="M201.509 424.5C208.412 424.5 214.009 418.904 214.009 412L214.009 366C214.009 359.097 208.422 353.5 201.518 353.5L159.332 353.5C152.347 353.5 148.235 351.41 145.862 348.731C143.477 346.039 142.776 342.673 142.776 340L142.776 295.5C142.776 288.596 137.18 283 130.276 283L85.5 283C78.5965 283 73 288.596 73 295.5L73 341.5C73 348.404 78.5965 354 85.5 354L130.977 354L130.977 354.5C135.632 354.5 138.374 356.3 139.983 358.889C141.618 361.52 142.123 365.031 142.123 368.5L142.123 412C142.123 418.904 147.719 424.5 154.623 424.5L201.509 424.5ZM132.942 353.611C136.775 354.061 139.275 355.855 140.832 358.361C142.615 361.23 143.123 364.969 143.123 368.5L143.123 412C143.123 418.351 148.272 423.5 154.623 423.5L201.509 423.5C207.86 423.5 213.009 418.351 213.009 412L213.009 366C213.009 359.648 207.869 354.5 201.518 354.5L159.332 354.5C152.139 354.5 147.723 352.34 145.113 349.394C142.515 346.461 141.776 342.827 141.776 340L141.776 295.5C141.776 289.149 136.628 284 130.276 284L85.5 284C79.1487 284 74 289.149 74 295.5L74 341.5C74 347.851 79.1487 353 85.5 353L132.942 353L132.942 353.611Z" fill="#E6E1EF" fill-opacity="0.63"/>
<path fill-rule="evenodd" clip-rule="evenodd" d="M154.5 353.5C147.596 353.5 142 347.904 142 341L142 295C142 288.097 147.586 282.5 154.49 282.5L196.677 282.5C203.662 282.5 207.774 280.41 210.147 277.731C212.532 275.039 213.233 271.673 213.233 269L213.233 224.5C213.233 217.596 218.829 212 225.733 212L270.509 212C277.412 212 283.009 217.596 283.009 224.5L283.009 270.5C283.009 277.404 277.412 283 270.509 283L225.032 283L225.032 283.5C220.377 283.5 217.635 285.3 216.026 287.889C214.391 290.52 213.886 294.031 213.886 297.5L213.886 341C213.886 347.904 208.29 353.5 201.386 353.5L154.5 353.5ZM223.066 282.611C219.233 283.061 216.734 284.855 215.176 287.361C213.393 290.23 212.886 293.969 212.886 297.5L212.886 341C212.886 347.351 207.737 352.5 201.386 352.5L154.5 352.5C148.149 352.5 143 347.351 143 341L143 295C143 288.648 148.14 283.5 154.49 283.5L196.677 283.5C203.869 283.5 208.286 281.34 210.896 278.394C213.494 275.461 214.233 271.827 214.233 269L214.233 224.5C214.233 218.149 219.381 213 225.733 213L270.509 213C276.86 213 282.009 218.149 282.009 224.5L282.009 270.5C282.009 276.851 276.86 282 270.509 282L223.066 282L223.066 282.611Z" fill="#EEEBF4" fill-opacity="0.32"/>
</svg>
